<svg width="179" height="68" viewBox="0 0 179 68" fill="none" xmlns="http://www.w3.org/2000/svg">
<path d="M80.3 32.35c0-1.87.33-2.54-1.75-3.65l-1.44-.71v-1.29h14.36v1.29l-1.46.58c-2.17.89-2.17 1.13-2.12 3.78l.02 10.66-.53.51c-2.5.65-8.36 2.25-13.63 2.25-12.1 0-18.07-6.3-18.07-19.92 0-14.64 8.43-20.98 19.49-20.98 2.97 0 8.36 0 12.1 3.18 1.25 1.05 1.36 2.22 1.36 2.69 0 .89-.18 1.07-.35 1.43l-2.69 5.23h-1c0-2.58-2.99-9.46-10.77-9.46-9.02 0-9.47 6.32-9.47 17 0 9.35.98 17.76 11.75 17.76 3.48 0 4.12-1.85 4.21-3.92V32.35z" fill="#002E71"/>
<path d="M95.06 43.7l2.57-1.05c2.1-.82 2.1-2.35 2.1-5.76V12.35c0-1.89-.53-2.82-2-3.83l-2.35-1.58V5.65h10.66l.65.4c1.17 1.58 3.6 5.83 6.89 10.28l11.3 15.44c.47.65.71.94.94.94.46 0 .46-.58.46-1.65V12.39c0-2.69-.04-3.23-2.32-4.16L120.63 6.94V5.65h13.41v1.29l-1.71.65c-2.5 1-2.99 1.58-2.99 5.45v23.14c0 3.54.07 7.12.07 8.34l-.4.47h-3.28l-.65-.47c-.53-.64-3.56-4.94-6.67-9.1L104.7 17.04c-.75-1-1.11-1.53-1.4-1.53-.53 0-.53.6-.53 1.42v21.01c0 2.82 0 3.71 2.47 4.53l3.45 1.23v1.29H95.06V43.7z" fill="#002E71"/>
<path d="M137.48 43.7l2.57-.87c1.93-.64 2-1.71 2-5.41V12.04c0-2.8 0-3.51-2-4.16l-2.57-.93V5.65h19.4c6.78 0 13.43 1.47 13.43 10.39 0 8.17-6.07 13.22-15.56 13.22-.4 0-.93-.07-1.29-.07l-.86-2.11.46-.47c4.26-.11 9.43-1.87 8.69-10.13-.57-6.43-2.43-7.63-7.69-7.63-3.57 0-3.81.53-3.81 2V37.43c0 3.93-.07 4.76 2.29 5.4l3.03.87v1.29H137.48V43.7z" fill="#002E71"/>
<path d="M31.59 25.12c0 3.63-2.93 6.56-6.56 6.56s-6.56-2.93-6.56-6.56 2.93-6.56 6.56-6.56 6.56 2.93 6.56 6.56z" fill="#FC6C25"/>
<path d="M14.15 14.15H0l2.86 8.79h7.05v-.02c7.14 0 12.93-5.81 12.95-13V2.87l-8.71-2.87v14.15zM14.1 36.07v14.17l8.76-2.85V40.32h-.02c0-7.16-5.79-12.97-12.95-13H2.86l-2.86 8.75H14.1zM35.94 36.09h14.14l-2.88-8.77H40.03c-7.14 0-12.93 5.81-12.93 13v7.05l8.71 2.87V36.09zM35.96 14.2V.02l-8.74 2.85V9.95c.02 7.16 5.81 12.97 12.95 13H47.2l2.88-8.75H35.96z" fill="#FC6C25"/>
</svg>
