<svg xmlns="http://www.w3.org/2000/svg" width="315" height="61" viewBox="0 0 315 61">
  <path d="M459.18 624.8c5.52 0 8.08-2.4 8.08-6.5s0-3.5 0-3.5c0-1.1-.3-1.6-1.1-2.4-3.6-3.1-3.6-3.1-3.6-3.1 3.6-3.1 3.6-3.1 3.6-3.1.8-.7 1.1-1.2 1.1-2.4 0-3.1 0-3.1 0-3.1 0-4.1-2.5-6.5-8.08-6.5-35 0-35 0-35 0 0 30.9 0 30.9 0 30.9l35 0z" fill="#000" transform="translate(-180 -579)"/>
  <path d="M246.5 606.4v-12.6h-5.6v30.9h5.6v-12.8h30.4v12.8h5.6V593.8h-5.6v12.6H246.5z" fill="#000" transform="translate(-180 -579)"/>
  <path d="M224.3 599.3v-5.4h-33.3c-5.1 0-7.6 2.6-7.6 7 0 16.8 0 16.8 0 16.8 0 4.4 2.5 7 7.6 7h33.3v-5.4h-35.3v-20h35.3z" fill="#000" transform="translate(-180 -579)"/>
</svg>
