<svg xmlns="http://www.w3.org/2000/svg" viewBox="0 0 1708 470">
<path d="M750 175c-25.5 0-45.3 7.7-59.8 23.7-11.7-15.7-29.5-23.7-53.3-23.7-21.2 0-38.2 7-49.8 20.5v-17.2h-35.5v125.1h37.5v-81.5c7.2-9.7 20-14.7 37.7-14.7 25.7 0 37.7 10 37.7 32v64.3h37.5v-81.5c7.2-9.7 20-14.7 37.7-14.7 25.7 0 37.7 10 37.7 32v64.3h37.5v-64.5c0-40-24.2-63.8-65.3-63.8z" fill="#ff002d"/>
<path d="M966.3 195.5c-13.5-12.7-35.3-20.5-58-20.5-43.3 0-74.1 27.2-74.1 65.8s30.8 65.8 74 65.8c22.8 0 44.5-7.7 58-20.5v17.2h35.5v-125.1h-35.5v17.2zm-2 61.9c-10.5 11.2-27.2 17.2-48.3 17.2-27.7 0-44.3-12.7-44.3-33.8s16.5-33.8 44.3-33.8c21 0 37.8 6 48.3 17.2v33z" fill="#ff002d"/>
<path d="M1213.3 179.5v123.9h37.5v-95.1h55.8v-30h-55.8v-2.5c0-16.2 8.7-22.5 31.5-22.5 7.2 0 20.2 1.2 35 3.5l2.5-26.5c-12.2-3.5-25.7-5.2-41.3-5.2-43.5 0-65.3 18-65.3 54.5z" fill="#ff002d"/>
<path d="M364.3 181.8c0-31.5-25.2-56.8-57-56.8s-57.3 25-57.3 56.8c0 29.5 16 58.5 45 82.3l-1 .5c-81.3-40.5-116.8-54.3-140.4-54.3-16.7 0-28.5 11.7-28.5 28.2 0 34.5 42 68 85.3 68 73.6 0 153.9-65.3 153.9-124.9z" fill="#ff002d"/>
<path d="M460.7 210.3c-27 0-61 16.2-142.1 68 38.7 20.5 62 28.2 85.1 28.2 43.3 0 85.3-33.5 85.3-68 0-16.5-11.7-28.2-28.2-28.2z" fill="#ff002d"/>
</svg>
