<svg width="174" height="238" viewBox="0 0 174 238" xmlns="http://www.w3.org/2000/svg">
  <path d="M141.2 65.9c0-21.4-14.5-47.3-56.8-47.8-37.4 1-56.8 21.4-56.8 47.9 1 37.7 34.9 47.8 56.8 47.8 41-0.1 62.8-21 61.8-47.9zM113.5 80.3c-.2 1.3-.5 2.5-.9 3.7h0c-3.9 11.7-15 20.1-28 20.1s-24.1-8.4-28-20.1c-.4-1.2-.7-2.4-.9-3.7-1-4.5-1.5-9.4-1.5-14.4s.5-9.9 1.5-14.4c.2-1.3.5-2.5.9-3.7h0c3.9-11.7 15-20.1 28-20.1s24.1 8.4 28 20.1c.4 1.2.7 2.4.9 3.7 1 4.5 1.5 9.4 1.5 14.4s-.5 9.9-1.5 14.4z" fill="#0072CE"/>
  <path d="M38.5 227.9l-5.1 5c-1.6-.1-3.3-.4-5-.9s-3.5-1.1-5.3-2c-1.8-.8-4.2-2.3-7.1-4.3s-7.9-2.8-10.7-6.1-4.2-7.1-4.2-11.5c0-5.3 1.8-9.7 5.4-13.2s8.2-5.2 13.7-5.2 10 1.7 13.7 5.2 5.4 7.8 5.4 13c0 4.4-1.4 8.2-4.1 11.6s-6.3 5.4-10.6 6.3l1.3.5c4.2 1.6 7.2 2.4 9 2.4s1.2-.2 2.6-.7zM20.2 194.5c-4 0-7.3 1.3-9.9 3.9s-3.9 5.8-3.9 9.7 1.3 7 3.9 9.5 5.9 3.8 9.9 3.8 7.2-1.3 9.9-3.9 4-5.8 4-9.6c0-3.9-1.3-7.1-3.9-9.6s-3.3-3.8-7.3-3.8z" fill="#003594"/>
</svg>
