<svg xmlns="http://www.w3.org/2000/svg" width="100" height="100" viewBox="0 0 28.13 28.13">
  <rect width="28.13" height="28.13" fill="#00008f"/>
  <polygon points="15.82,13.89 17.43,13.89 28.13,0 26.55,0" fill="#ff1721"/>
  <path d="M21.49,20.09c.49,1.37,1.5,4.94,1.9,5.22h-2.65a4.42,4.42,0,0,0-.12-.94c-.11-.41-1.07-3.49-1.07-3.49h-4.21l-.66.94s.8,2.49.84,2.61a3.85,3.85,0,0,0,.47.88h-2.54s-.07-.38-.09-.54-.24-.83-.24-.83-0.58.63-.73.92-.23.44-.23.44H9.92s-.07-.38-.09-.54c-.02-.13-.26-.88-.26-.88s-.56.68-.72.97-.23.46-.23.46H6.65s.56-.53.75-.76c.33-.39,1.55-1.98,1.55-1.98L3.25,20.89H.74s-2.38,3.13-2.48,3.23-.79,1.09-.81,1.2H-2.41v-.79a.6.6,0,0,1,.05-.05l3.43-4.39C2.53,18.2,3.9,16.36,4.02,16.19c.29-.42.71-1.34.71-1.34H6.89s.07.84.13,1.04c.06.18,1.37,4.5,1.4,4.55l.73-.93-1.24-3.83s-.29-.72-.39-.83H10l.08.69c.1,0.31.64,2.27.64,2.27s1.72-2.16,1.82-2.31a1.4,1.4,0,0,0,.21-.64h2.1s-.38.28-1.06,1.13c-.23.29-2.45,3.11-2.45,3.11s.19.66.29.99c.03,0.09.04,0.16.04,0.17s.05-.06.13-.17c.57-.73,3.18-4.14,3.34-4.44.13-.24.31-.51.42-.8H20.1s.05.61.11.78zM18.37,16.85c-.3,0.65-2.07,2.81-2.07,2.81h2.81s-.54-1.68-.64-2.05a3,3,0,0,1-.06-.73c0-.03-.01-.09-.04-.02zM7.56,16.85c-.3,0.65-2.08,2.81-2.08,2.81H8.31s-.54-1.68-.64-2.05a3,3,0,0,1-.06-.73c0-.03-.01-.09-.04-.02zM11.8,23.4l.77-1.06s-.51-1.4-.51-1.4l-.75.97z" fill="#fff"/>
</svg>
